/* XPM */
static char *a750200724fb4933a4c4b4605d5838f9kpl2Il4RHGYMeeHX[] = {
/* columns rows colors chars-per-pixel */
"42 100 145 2 ",
"   c None",
".  c gray7",
"X  c #151515",
"o  c #161616",
"O  c gray9",
"+  c #171818",
"@  c #181818",
"#  c #191919",
"$  c #191A19",
"%  c gray10",
"&  c #1B1B1B",
"*  c #1B1C1C",
"=  c gray11",
"-  c #1D1C1D",
";  c #1C1D1D",
":  c #1D1D1D",
">  c #1E1E1E",
",  c gray12",
"<  c #201F1F",
"1  c #202020",
"2  c #202120",
"3  c gray13",
"4  c #212221",
"5  c #222222",
"6  c #232222",
"7  c #222322",
"8  c #232323",
"9  c gray14",
"0  c #252525",
"q  c gray15",
"w  c #272627",
"e  c #272727",
"r  c #282828",
"t  c gray16",
"y  c #2A2A29",
"u  c #2A2A2A",
"i  c #2B2A2B",
"p  c gray17",
"a  c #2C2B2B",
"s  c #2C2C2C",
"d  c #2D2C2C",
"f  c #2D2D2D",
"g  c gray18",
"h  c #2F2F2F",
"j  c gray19",
"k  c #313030",
"l  c #313131",
"z  c #323131",
"x  c #323232",
"c  c #333233",
"v  c gray20",
"b  c #343434",
"n  c #353434",
"m  c #353535",
"M  c gray21",
"N  c #373637",
"B  c gray22",
"V  c #383938",
"C  c #393939",
"Z  c #3A3A3A",
"A  c #3B3A3A",
"S  c #3B3A3B",
"D  c gray23",
"F  c #3C3C3C",
"G  c #3D3C3C",
"H  c gray24",
"J  c #3E3D3D",
"K  c #3E3E3E",
"L  c #3F3E3E",
"P  c gray25",
"I  c #414041",
"U  c #414141",
"Y  c #414241",
"T  c #434343",
"R  c #444343",
"E  c #444344",
"W  c #444444",
"Q  c #454444",
"!  c #454445",
"~  c gray27",
"^  c #464546",
"/  c #474646",
"(  c #474647",
")  c gray28",
"_  c #484748",
"`  c #484848",
"'  c #494848",
"]  c #494949",
"[  c gray29",
"{  c #4A4B4A",
"}  c #4B4B4B",
"|  c #4C4B4B",
" . c #4C4B4C",
".. c #4C4C4C",
"X. c #4D4C4C",
"o. c #4D4C4D",
"O. c gray30",
"+. c #4E4E4E",
"@. c #4F4E4F",
"#. c gray31",
"$. c #515050",
"%. c #515151",
"&. c #525152",
"*. c gray32",
"=. c #535252",
"-. c #535353",
";. c gray33",
":. c #565555",
">. c #565656",
",. c #575656",
"<. c #585857",
"1. c #585758",
"2. c #585858",
"3. c #595858",
"4. c gray35",
"5. c #5A5A5A",
"6. c #5B5A5A",
"7. c #5B5B5B",
"8. c gray36",
"9. c #5D5D5D",
"0. c #5E5D5D",
"q. c #5F5E5E",
"w. c #605F5F",
"e. c #616060",
"r. c #606061",
"t. c #626162",
"y. c #636262",
"u. c #646363",
"i. c #646364",
"p. c #666565",
"a. c gray40",
"s. c #686767",
"d. c #6A6768",
"f. c #686868",
"g. c #6A6969",
"h. c #6D6C6C",
"j. c #6E6D6E",
"k. c gray43",
"l. c #6F6E6E",
"z. c #716E6F",
"x. c #706F6F",
"c. c #717071",
"v. c #727272",
"b. c #747474",
"n. c #7D7A7B",
/* pixels */
"                                                      }                             ",
"                                                        g u 9.                      ",
"                                                          o & g                     ",
"                                                          q 3 = =                   ",
"                                                          ) = q & F                 ",
"                                                          ) = 3 3 @ v.              ",
"          l                       +.    ;.                q 3 3 3 = V               ",
"        & ;.                    N o 3 & l   V }         f.& 3 3 3 8 q               ",
"      1 3                     V = 3 3 3 8 = @ G       ;.& 8 3 8 8 3 8               ",
"    I . 9.            l = q q = 3 8 8 3 8 3 3 q N H l = 3 3 8 3 3 3 8               ",
"    & &               } = 3 3 3 8 3 8 3 3 8 3 3 = = , 3 3 3 3 8 3 3 q               ",
"  V = =             3 = q 3 3 3 3 8 3 8 8 3 8 3 8 9 8 3 8 3 8 3 3 & R               ",
"  & 3 &             g = 3 3 q 3 8 3 8 3 8 3 8 3 3 8 3 8 8 3 8 8 3 =                 ",
"t.& 3 & +.        & 3 q 3 3 3 3 3 8 3 8 3 8 3 8 3 3 8 3 3 8 3 3 o p.                ",
"L = 3 3 = q ) ) ) 3 3 3 q 3 3 q 8 3 8 3 8 3 8 3 8 3 3 8 3 3 = & +.                  ",
"q 3 8 3 3 3 = = = 3 3 3 3 3 3 3 3 8 3 8 3 8 3 8 3 8 3 3 , & g                       ",
"q 3 3 8 3 8 3 8 8 3 8 3 8 3 8 3 8 3 8 3 8 3 8 3 3 q = = g ;.                        ",
"F = 8 3 8 3 8 3 3 8 3 8 3 8 3 8 3 8 3 8 3 8 3 8 3 < I                               ",
"  o 3 8 3 8 3 8 8 3 8 3 8 3 8 3 8 3 8 3 8 3 8 3 3 = |                               ",
"  g = 3 8 3 8 3 3 8 3 8 3 8 3 8 3 8 3 8 3 8 3 8 3 3 o +.                            ",
"    & = 3 8 3 8 3 3 3 3 3 3 q 3 3 8 3 8 8 3 8 3 3 = 9.                              ",
"      u = = & = & & = 8 q 3 3 3 8 3 3 3 3 8 3 8 3 & H                               ",
"          ;.&.+.+.4.+.& 3 3 3 3 3 3 3 8 8 3 8 & H                                   ",
"                      &.& 3 q = 3 8 3 8 3 3 < h                                     ",
"                        +.    3 3 3 3 8 8 3 3 q E                                   ",
"                                V < 8 3 3 8 8 3 = * q I                             ",
"                              I 3 8 3 8 8 3 8 3 8 3 3 = 3 V                         ",
"                            4.& 3 3 8 3 3 3 3 8 3 8 3 3 3 & q                       ",
"                            = 3 8 3 8 3 3 3 8 3 8 3 8 3 8 3 & P                     ",
"                           .= 3 3 8 3 8 3 8 3 8 3 8 3 8 3 8 3 3                     ",
"                          l = 3 8 3 8 3 8 3 8 3 8 3 3 3 8 3 8 &                     ",
"                          3 3 q 3 8 3 8 3 8 3 8 3 8 3 8 3 8 3 & j.                  ",
"                          = 3 3 3 8 3 8 8 3 8 3 3 8 3 8 3 3 3 & ;.                  ",
"                          3 3 3 8 3 8 3 3 3 3 8 8 3 8 3 8 3 3 3 V                   ",
"                          & 3 q 3 8 3 8 8 3 3 3 3 8 3 8 3 8 3 3 a                   ",
"                          & 3 3 8 3 8 3 8 3 8 3 8 3 8 3 8 3 8 = E                   ",
"                          3 3 3 3 8 3 8 3 8 3 8 3 8 3 8 3 8 3 = |                   ",
"                          = 3 q 8 3 8 3 8 3 8 3 8 3 8 3 8 3 3 * 9.                  ",
"                          & 3 3 3 8 3 8 3 8 3 8 3 8 3 8 3 8 3 o n.                  ",
"                          q 3 3 8 3 8 3 8 3 8 3 8 3 8 3 8 3 3 = &.                  ",
"                          q 3 3 3 8 3 8 3 8 3 8 3 8 3 8 3 8 8 3                     ",
"                          q 3 q 8 3 8 3 8 3 8 3 8 3 8 3 8 3 3 1                     ",
"                          q 3 3 3 8 3 8 3 8 3 8 3 8 3 8 3 8 3 =                     ",
"                          = 3 3 8 3 8 3 8 3 8 3 8 3 8 3 8 3 8 =                     ",
"                          = 3 8 3 8 3 8 3 8 3 8 3 8 3 8 3 8 3 ,                     ",
"                          = 8 3 8 3 8 3 8 3 8 3 8 3 8 3 8 3 8 =                     ",
"                        f.& 3 8 3 8 3 8 3 8 3 8 3 8 3 8 3 8 3 & u.                  ",
"                        N = 8 3 8 3 8 3 8 3 8 3 8 3 8 3 8 3 q = L                   ",
"                        = 3 3 q 8 3 8 3 8 3 8 3 8 3 8 3 8 3 8 = }                   ",
"                        = 3 3 3 3 8 3 8 8 3 3 3 3 8 3 8 3 8 3 = V                   ",
"                      &.& 3 3 3 8 3 8 3 3 8 3 8 8 3 8 3 8 3 8 3 3                   ",
"                      ) = 3 3 q 3 8 3 8 8 3 8 3 3 8 3 8 3 8 3 3 &                   ",
"                      N = q 3 3 8 3 8 3 3 3 8 3 8 3 8 3 3 3 3 8 & w.                ",
"                      u 3 3 3 3 3 8 3 8 3 8 3 8 3 8 3 8 3 8 8 3 & N                 ",
"                      q 3 q q 3 8 3 8 3 8 3 8 3 8 3 8 3 8 3 8 8 3 =                 ",
"                      q 3 3 3 3 3 8 3 8 3 8 3 8 3 8 3 8 3 8 3 3 3 = H               ",
"                      e 3 8 3 8 3 3 8 3 8 3 8 3 3 8 3 8 3 8 3 8 3 3 q               ",
"                      l = 3 8 3 8 3 3 8 3 8 3 8 8 3 8 3 8 3 8 3 3 q 3 u V }         ",
"                    I q 3 8 3 8 3 8 3 8 8 3 8 3 3 8 3 8 3 8 3 8 3 = 3 3 , = = a H   ",
"                  3 & 3 3 3 8 3 8 3 8 3 3 8 3 8 8 3 8 3 8 3 3 q 3 u = 3 3 3 = q 1 a ",
"                & 3 3 3 8 3 8 3 3 8 3 8 3 8 3 8 3 8 3 8 8 3 8 = V     l 3 = x.      ",
"              = = & = * 3 8 3 8 8 3 8 3 8 3 8 3 8 3 8 3 3 8 3 = )                   ",
"            o & l t.  } = 3 3 3 3 8 3 8 3 8 3 8 3 8 3 8 8 3 3 & &.                  ",
"          ;.g           } = g 3 8 3 8 3 8 3 8 3 8 3 8 3 3 3 3 & &.                  ",
"                          ;.;.= 3 3 3 9 8 3 8 8 3 8 3 8 3 8 3 = |                   ",
"                            <.* 3 9 3 3 3 8 3 3 8 3 8 3 8 3 3 & c.                  ",
"                            I = 9 3 9 3 8 3 3 u 3 8 3 8 3 8 3 ,                     ",
"                            } & 3 3 9 3 3 3 8 I 3 3 8 3 8 3 9 =                     ",
"                            N = 3 9 3 3 9 3 q } 3 8 3 8 3 8 3 =                     ",
"                            u 3 3 3 9 3 3 < N p.= 3 8 3 8 3 3 3                     ",
"                            3 3 9 9 3 3 3 = V b.= 9 3 8 3 3 3 8                     ",
"                            q 3 3 3 3 9 8 3 N p.= 3 8 3 8 3 3 q                     ",
"                            q 3 8 3 8 3 3 < V t.= 9 8 3 8 3 3 q                     ",
"                            3 3 3 8 3 8 3 = _ e.* 3 3 8 3 8 3 8                     ",
"                            = 3 8 3 8 3 3 = $.  & 3 8 3 3 3 3 q                     ",
"                            = 3 3 8 3 3 3 & 9.j.o 3 3 3 3 3 1 r                     ",
"                            = q 8 3 8 3 3 = } 7.* 3 8 3 8 3 3 u                     ",
"                            = 3 3 8 3 8 3 3 l _ = 8 3 8 3 8 3 u                     ",
"                            = 3 8 3 8 3 3 3 R +.= 3 8 3 8 3 1 u                     ",
"                            = 3 3 8 3 8 3 = | &.= 8 3 8 3 3 1 e                     ",
"                            1 3 8 3 8 3 3 & ;.4.& 3 8 3 8 3 3 8                     ",
"                            8 3 3 8 3 8 3 & i.  & 3 3 8 3 8 3 8                     ",
"                            q 3 8 3 8 3 3 & v.  @ 3 8 3 3 8 3 =                     ",
"                            = 8 3 8 3 8 3 = )   = 8 3 8 8 3 8 & 4.                  ",
"                            = 3 8 3 8 3 8 3 l   8 3 8 3 3 8 3 & +.                  ",
"                            = 8 3 8 3 8 3 = }   w 3 3 8 8 3 3 < l                   ",
"                          p.* 3 8 8 3 3 3 = I   a 3 8 3 8 3 8 3 *                   ",
"                          } & 8 3 3 3 8 3 3 u   } = 3 8 3 8 3 8 & x.                ",
"                          N = 8 3 3 3 8 3 & t.  t.& 8 3 8 3 8 3 & I                 ",
"                          < 3 8 8 8 3 3 3 = '     = 3 8 3 8 3 8 3 3                 ",
"                          & 3 3 3 8 3 8 3 < V     = 3 3 8 3 8 3 3 & 9.              ",
"                        T = 3 8 8 3 8 3 3 * )     = 3 8 3 8 3 8 8 = u               ",
"                        3 3 3 8 3 8 3 8 8 , u     = 3 8 8 3 8 3 8 3 & d.            ",
"                        & 3 8 3 8 3 8 3 3 < u     = 3 3 3 8 3 8 3 3 3 q             ",
"                      &.& 3 3 8 3 8 3 8 8 3 3     B = 8 8 3 8 3 3 3 3 & f.          ",
"                      9 3 3 8 3 8 3 8 3 3 = &       , 3 3 8 3 8 3 3 3 3             ",
"                    = 3 3 3 3 3 8 3 = = o }         } q = < 3 3 3 q 3 3 u           ",
"                  N = 3 q 3 q 3 = 3 }                     g = 3 3 3 3 3 & ;.        ",
"                  1.o = o & = 3 )                             g = = q 3 o 9.        ",
"                        x.4.                                    +.g 3 = u           "
};
